<?xml version="1.0" standalone="no"?>
<!DOCTYPE svg PUBLIC "-//W3C//DTD SVG 20010904//EN"
 "http://www.w3.org/TR/2001/REC-SVG-20010904/DTD/svg10.dtd">
<svg version="1.0" xmlns="http://www.w3.org/2000/svg"
 width="60" height="40" viewBox="0 0 600.000000 400.000000"
 preserveAspectRatio="xMidYMid meet">

<g transform="translate(0.000000,400.000000) scale(0.100000,-0.100000)"
fill="#000000" stroke="none">
<path d="M1761 3789 c-151 -12 -220 -38 -236 -90 -13 -41 50 -112 226 -252
164 -131 452 -445 500 -545 40 -82 9 -173 -88 -262 -130 -119 -409 -312 -563
-389 -47 -24 -90 -47 -96 -52 -6 -5 -73 -43 -150 -85 -298 -163 -593 -415
-672 -573 l-36 -74 -4 -158 c-5 -187 -1 -202 90 -358 174 -299 338 -467 602
-615 93 -53 209 -102 306 -131 118 -34 265 -44 665 -46 398 -2 649 10 761 36
34 8 83 17 110 20 117 15 197 32 463 99 102 26 320 98 394 130 23 10 35 21 31
28 -4 6 -3 8 4 4 14 -9 215 75 324 135 233 129 425 265 543 384 107 107 150
178 141 233 -7 43 -3 50 44 81 65 44 194 185 224 246 33 67 51 175 42 256 -6
66 -17 95 -65 168 -31 48 -33 55 -21 75 57 89 70 122 70 187 0 42 -8 88 -22
130 l-23 64 -5 -52 c-8 -76 -32 -101 -150 -160 -197 -99 -394 -148 -565 -141
-85 3 -109 8 -157 31 -74 36 -95 64 -103 135 -12 116 -27 185 -60 293 -43 137
-44 173 -6 225 68 94 216 208 312 239 65 22 143 22 206 1 54 -18 157 -80 208
-125 25 -22 25 -20 -5 13 -19 21 -71 65 -115 98 -44 32 -99 75 -123 96 -102
88 -299 188 -537 271 -60 22 -128 47 -150 57 -22 9 -110 41 -195 70 -85 29
-200 70 -255 90 -55 20 -154 52 -220 71 -104 31 -135 35 -236 37 -104 1 -119
-1 -139 -19 -19 -17 -21 -28 -17 -68 3 -35 0 -50 -9 -54 -16 -6 -99 20 -179
57 -128 59 -256 96 -538 155 -157 33 -369 47 -526 34z m-98 -109 c-3 -12 -8
-19 -11 -16 -5 6 5 36 12 36 2 0 2 -9 -1 -20z m1605 -57 c-10 -2 -26 -2 -35 0
-10 3 -2 5 17 5 19 0 27 -2 18 -5z m-1442 -145 l29 -33 -32 29 c-18 17 -33 31
-33 33 0 8 8 1 36 -29z m674 -102 c0 -2 -8 -10 -17 -17 -16 -13 -17 -12 -4 4
13 16 21 21 21 13z m1101 -203 c13 -16 12 -17 -3 -4 -17 13 -22 21 -14 21 2 0
10 -8 17 -17z m-108 -30 c-7 -2 -19 -2 -25 0 -7 3 -2 5 12 5 14 0 19 -2 13 -5z
m777 -107 c0 -2 -8 -10 -17 -17 -16 -13 -17 -12 -4 4 13 16 21 21 21 13z
m-1250 -50 c0 -2 -8 -10 -17 -17 -16 -13 -17 -12 -4 4 13 16 21 21 21 13z
m488 -53 c-10 -2 -28 -2 -40 0 -13 2 -5 4 17 4 22 1 32 -1 23 -4z m195 0 c-13
-2 -33 -2 -45 0 -13 2 -3 4 22 4 25 0 35 -2 23 -4z m184 -19 c-3 -3 -12 -4
-19 -1 -8 3 -5 6 6 6 11 1 17 -2 13 -5z m-4 -67 c106 -50 193 -118 264 -208
101 -128 137 -232 131 -379 -3 -84 -8 -105 -36 -163 -89 -180 -292 -292 -552
-304 -135 -7 -204 7 -317 62 -86 42 -138 98 -158 170 -8 27 -23 112 -34 188
-24 165 -46 218 -125 306 -56 64 -71 93 -64 128 3 15 12 18 60 15 70 -4 124
18 193 80 69 61 103 84 166 108 96 39 167 50 277 45 96 -4 108 -7 195 -48z
m-1653 -221 c0 -2 -8 -10 -17 -17 -16 -13 -17 -12 -4 4 13 16 21 21 21 13z
m-70 -60 c0 -2 -8 -10 -17 -17 -16 -13 -17 -12 -4 4 13 16 21 21 21 13z m861
-83 c13 -16 12 -17 -3 -4 -17 13 -22 21 -14 21 2 0 10 -8 17 -17z m2303 -304
c-16 -16 -34 -27 -42 -24 -7 2 -10 0 -7 -5 5 -8 -64 -51 -82 -50 -4 1 9 10 30
21 20 11 37 22 37 25 0 3 -5 2 -11 -2 -6 -3 -15 -1 -19 6 -5 9 -20 5 -56 -13
-55 -27 -183 -71 -189 -65 -3 2 28 15 68 27 99 32 216 94 258 137 l34 35 3
-32 c3 -23 -3 -39 -24 -60z m-2197 29 c-3 -7 -5 -2 -5 12 0 14 2 19 5 13 2 -7
2 -19 0 -25z m-70 -25 c-3 -10 -5 -2 -5 17 0 19 2 27 5 18 2 -10 2 -26 0 -35z
m80 -85 c-2 -13 -4 -5 -4 17 -1 22 1 32 4 23 2 -10 2 -28 0 -40z m2033 -8 c-8
-5 -19 -10 -25 -10 -5 0 -3 5 5 10 8 5 20 10 25 10 6 0 3 -5 -5 -10z m-202
-25 c-10 -11 -185 -45 -223 -44 -31 1 -26 3 25 10 36 5 88 15 115 23 51 15 92
20 83 11z m107 -10 c-16 -8 -37 -14 -45 -14 -8 0 1 7 20 14 46 18 64 17 25 0z
m-2018 -62 c-3 -10 -5 -2 -5 17 0 19 2 27 5 18 2 -10 2 -26 0 -35z m1601 20
c-15 -2 -42 -2 -60 0 -18 2 -6 4 27 4 33 0 48 -2 33 -4z m257 -8 c-22 -8 -49
-13 -60 -13 -11 0 0 6 25 13 59 17 87 17 35 0z m-92 -22 c-7 -2 -21 -2 -30 0
-10 3 -4 5 12 5 17 0 24 -2 18 -5z m-60 -10 c-7 -2 -21 -2 -30 0 -10 3 -4 5
12 5 17 0 24 -2 18 -5z m-85 -10 c-10 -2 -26 -2 -35 0 -10 3 -2 5 17 5 19 0
27 -2 18 -5z m325 -20 c-7 -2 -19 -2 -25 0 -7 3 -2 5 12 5 14 0 19 -2 13 -5z
m77 3 c0 -2 -8 -10 -17 -17 -16 -13 -17 -12 -4 4 13 16 21 21 21 13z m-163
-12 c-3 -3 -12 -4 -19 -1 -8 3 -5 6 6 6 11 1 17 -2 13 -5z m-2940 -30 c-3 -3
-12 -4 -19 -1 -8 3 -5 6 6 6 11 1 17 -2 13 -5z m-60 -10 c-3 -3 -12 -4 -19 -1
-8 3 -5 6 6 6 11 1 17 -2 13 -5z m-60 -10 c-3 -3 -12 -4 -19 -1 -8 3 -5 6 6 6
11 1 17 -2 13 -5z m-797 -8 c0 -2 -8 -10 -17 -17 -16 -13 -17 -12 -4 4 13 16
21 21 21 13z m938 -33 c-10 -2 -28 -2 -40 0 -13 2 -5 4 17 4 22 1 32 -1 23 -4z
m-988 -6 c0 -2 -10 -12 -22 -23 l-23 -19 19 23 c18 21 26 27 26 19z m877 -3
c-3 -3 -12 -4 -19 -1 -8 3 -5 6 6 6 11 1 17 -2 13 -5z m2117 -45 c-10 -12 -42
-32 -71 -45 -57 -26 -218 -74 -243 -73 -8 0 29 13 83 28 54 16 101 32 105 36
4 4 -3 5 -14 1 -12 -4 -37 -9 -54 -11 -38 -5 -28 11 10 17 14 2 -45 3 -130 2
l-155 -2 140 8 c137 7 190 15 290 44 28 8 52 15 54 15 2 1 -4 -9 -15 -20z
m-3094 -42 c0 -2 -17 -19 -37 -38 l-38 -34 34 38 c33 34 41 42 41 34z m3621
-84 c13 -16 12 -17 -3 -4 -10 7 -18 15 -18 17 0 8 8 3 21 -13z m-883 0 c-10
-2 -26 -2 -35 0 -10 3 -2 5 17 5 19 0 27 -2 18 -5z m976 -633 c75 -26 116 -55
116 -85 0 -108 -490 -271 -990 -330 -69 -8 -156 -15 -195 -15 -61 1 -68 2 -52
14 9 7 72 33 140 56 167 58 297 124 297 150 0 5 -18 30 -40 56 -22 27 -36 51
-32 55 15 14 85 30 302 68 124 22 236 41 250 44 64 11 150 6 204 -13z m-2404
-36 c109 -32 378 -164 620 -302 60 -35 37 -39 -94 -17 -119 20 -324 85 -450
144 -102 47 -245 140 -264 170 -12 21 -10 21 61 21 40 0 98 -7 127 -16z m2350
-259 c0 -6 -56 -35 -67 -35 -4 1 8 9 27 20 39 22 40 22 40 15z m-3615 -25 c10
-11 16 -20 13 -20 -3 0 -13 9 -23 20 -10 11 -16 20 -13 20 3 0 13 -9 23 -20z
m136 -137 c13 -16 12 -17 -3 -4 -10 7 -18 15 -18 17 0 8 8 3 21 -13z m3178 1
c-14 -17 -53 -39 -96 -54 l-28 -10 24 20 c15 13 18 20 10 21 -11 1 78 35 100
38 2 1 -2 -6 -10 -15z m-112 -30 c-3 -3 -12 -4 -19 -1 -8 3 -5 6 6 6 11 1 17
-2 13 -5z m-720 -260 c-3 -3 -12 -4 -19 -1 -8 3 -5 6 6 6 11 1 17 -2 13 -5z
m-270 -50 c-3 -3 -12 -4 -19 -1 -8 3 -5 6 6 6 11 1 17 -2 13 -5z m-72 -14 c-3
-5 -16 -10 -28 -9 -20 1 -20 2 3 9 14 4 26 8 28 9 2 1 0 -3 -3 -9z"/>
<path d="M3735 2656 c-68 -30 -105 -101 -165 -321 -29 -102 -43 -179 -47 -242
-5 -88 -5 -92 20 -117 22 -22 35 -26 80 -26 116 0 251 63 304 142 51 75 58
103 58 238 0 112 -2 130 -24 170 -37 71 -68 108 -114 134 -58 33 -77 37 -112
22z m124 -332 c21 -17 31 -35 31 -53 0 -54 -103 -164 -128 -139 -15 15 -16
117 -1 155 13 34 38 63 55 63 7 0 26 -12 43 -26z"/>
<path d="M5240 2170 c-9 -6 -10 -10 -3 -10 6 0 15 5 18 10 8 12 4 12 -15 0z"/>
<path d="M3858 1753 c7 -3 16 -2 19 1 4 3 -2 6 -13 5 -11 0 -14 -3 -6 -6z"/>
<path d="M4718 2875 c-43 -42 -49 -171 -17 -360 27 -162 95 -255 187 -255 27
0 156 40 194 61 64 34 62 203 -3 330 -44 87 -224 236 -295 246 -33 4 -44 1
-66 -22z m306 -296 c14 -17 26 -37 26 -46 0 -22 -65 -83 -88 -83 -58 0 -67
106 -13 147 26 20 48 15 75 -18z"/>
<path d="M5276 2527 c3 -10 9 -15 12 -12 3 3 0 11 -7 18 -10 9 -11 8 -5 -6z"/>
</g>
</svg>
